<?xml version="1.0" encoding="utf-8"?>
<!-- Generator: Adobe Illustrator 22.1.0, SVG Export Plug-In . SVG Version: 6.00 Build 0)  -->
<svg version="1.1" id="Layer_1" xmlns="http://www.w3.org/2000/svg" xmlns:xlink="http://www.w3.org/1999/xlink" x="0px" y="0px"
	 viewBox="0 0 180 180" style="enable-background:new 0 0 180 180;" xml:space="preserve">
<style type="text/css">
	.st0{fill:#DBBA5E;}
</style>
<g>
	<path class="st0" d="M3.8,3.8v172.4h172.4V3.8H3.8z M163.6,163.6h-60.2c-6.2,0-12.2-3.4-14.7-9c0,0,0-0.1-0.1-0.1
		c-13.6-30.9,19.9-40.3,19.9-40.3C72.3,99.5,57.7,134,57.7,134c1-71.2,63.3-52.3,63.3-52.3c-8.9-26.7-41.5-36-66.1-26.8
		c-11,4.1-20.6,11.3-28.4,20c-3.1,3.4-6.9,7.5-10,12.1V16.4h147.1V163.6z"/>
</g>
</svg>
